# xmcd
#
# Track frame offsets: 
#        150
#        1632
#        18271
#        36085
#        52431
#        69822
#        74326
#        91308
#        109267
#        124283
#        141341
#        158461
#        174978
#        190702
#        205528
#        225175
#        240930
#        257949
#        278416
#        295415
#
# Disc length: 4468 seconds
#
# Revision: 0
# Processed by: cddbd v1.5.2PL0 Copyright (c) Steve Scherf et al.
# Submitted via: ExactAudioCopy v0.99pb4
#
DISCID=05117214
DTITLE=Brandy - Human (iTunes Deluxe Version)
DYEAR=2008
DGENRE=R&B
TTITLE0=Human Intro
TTITLE1=The Definition
TTITLE2=Warm It Up (With Love)
TTITLE3=Right Here (Departed)
TTITLE4=Piano Man
TTITLE5=Long Distance Interlude
TTITLE6=Long Distance
TTITLE7=Camouflage
TTITLE8=Torn Down
TTITLE9=Human
TTITLE10=Shattered Heart
TTITLE11=True
TTITLE12=A Capella (Something's Missing)
TTITLE13=1st and Love
TTITLE14=Fall
TTITLE15=Gonna Find My Love
TTITLE16=Locket (Locked In Love)
TTITLE17=Right Here (Departed) [Mad Decent Right Mad Mix]
TTITLE18=Long Distance (A Capella Version)
TTITLE19=Right Here (Departed) [Seamus Haji and Paul Emanuel Club Mix]
EXTD=
EXTT0=
EXTT1=
EXTT2=
EXTT3=
EXTT4=
EXTT5=
EXTT6=
EXTT7=
EXTT8=
EXTT9=
EXTT10=
EXTT11=
EXTT12=
EXTT13=
EXTT14=
EXTT15=
EXTT16=
EXTT17=
EXTT18=
EXTT19=
PLAYORDER=
